<?xml version="1.0" encoding="UTF-8"?>
<svg id="Layer_2" xmlns="http://www.w3.org/2000/svg" viewBox="0 0 1551.57 309.13">
  <defs>
    <style>
      .cls-1 {
        fill: #ffc400;
      }

      .cls-2 {
        fill: #002a5e;
      }
    </style>
  </defs>
  <g id="Layer_1-2" data-name="Layer_1">
    <g>
      <g>
        <path class="cls-2" d="M418.85,73.52c11.13,2.99,18.98,10.84,18.98,23.26,0,16.55-11.42,26.68-31.68,26.68h-43.66V26.43h40.81c20.26,0,31.39,9.7,31.39,25.11,0,10.56-6.42,18.41-15.84,21.69v.28ZM402.01,65.81c8.85,0,13.55-3.43,13.55-11.7,0-7.56-4.71-11.7-13.55-11.7h-20.12v23.4h20.12ZM381.89,81.79v25.68h22.12c8.85,0,14.41-3.57,14.41-12.84,0-8.56-5.57-12.84-15.55-12.84h-20.97Z"/>
        <path class="cls-2" d="M501.46,100.34h-33.68l-7.28,23.12h-18.98l32.1-97.74h23.4l31.68,97.74h-19.98l-7.28-23.12ZM484.62,45.12l-13.41,40.95h26.82l-12.99-40.95h-.43Z"/>
        <path class="cls-2" d="M558.38,123.46h-19.41V26.43h19.41v97.03ZM596.05,26.43h23.54l-38.38,47.09,39.38,49.94h-24.83l-36.82-49.08,37.1-47.94Z"/>
        <path class="cls-2" d="M642.28,88.36c0,8.85,2,20.55,19.69,20.55s19.12-11.7,19.12-20.55V26.43h19.41v61.93c0,25.11-14.84,36.53-38.81,36.53s-38.81-11.42-38.81-36.53V26.43h19.41v61.93Z"/>
        <path class="cls-2" d="M785.1,58.11l10.99,24.69h.29l10.56-24.69,13.98-31.68h24.83v97.03h-19.4v-44.23l.43-24.4h-.28l-24.69,53.22h-13.41l-24.69-53.22h-.28l.43,24.4v44.23h-17.69V26.43h24.4l14.55,31.68Z"/>
        <path class="cls-2" d="M915.93,100.34h-33.68l-7.28,23.12h-18.98l32.1-97.74h23.4l31.68,97.74h-19.98l-7.28-23.12ZM899.1,45.12l-13.41,40.95h26.82l-12.99-40.95h-.43Z"/>
        <path class="cls-2" d="M1008.54,42.41h-26.54v81.05h-19.41V42.41h-26.54v-15.98h72.49v15.98Z"/>
        <path class="cls-2" d="M1017.09,123.46V26.43h19.41v38.81h37.95V26.43h19.41v97.03h-19.41v-42.24h-37.95v42.24h-19.41Z"/>
        <path class="cls-2" d="M361.06,233.19c0-27.4,11.98-49.66,43.09-49.66s43.09,22.26,43.09,49.66-11.98,50.23-43.09,50.23-43.09-22.54-43.09-50.23ZM427.84,233.19c0-19.69-6.28-33.67-23.68-33.67s-23.69,13.98-23.69,33.67,6.28,34.24,23.69,34.24,23.68-14.55,23.68-34.24Z"/>
        <path class="cls-2" d="M517.3,281.99l-20.12-35.67h-16.26v35.67h-19.41v-97.03h41.38c20.26,0,32.96,12.27,32.96,30.68,0,13.98-6.99,23.97-18.84,28.39l22.12,37.96h-21.83ZM480.91,230.34h20.12c8.99,0,15.41-4.85,15.41-14.7s-6.42-14.7-14.13-14.7h-21.4v29.4Z"/>
        <path class="cls-2" d="M549.11,281.99v-97.03h19.41v97.03h-19.41Z"/>
        <path class="cls-2" d="M650.84,200.94h-45.8v22.83h39.24v15.98h-39.24v26.26h46.52v15.98h-65.92v-97.03h65.21v15.98Z"/>
        <path class="cls-2" d="M664.53,281.99v-97.03h17.69l43.8,65.21h.29l-.43-24.11v-41.1h17.69v97.03h-18.84l-42.67-63.35h-.28l.43,22.26v41.1h-17.69Z"/>
        <path class="cls-2" d="M824.63,200.94h-26.54v81.05h-19.41v-81.05h-26.54v-15.98h72.49v15.98Z"/>
        <path class="cls-2" d="M898.39,200.94h-45.8v22.83h39.24v15.98h-39.24v26.26h46.52v15.98h-65.92v-97.03h65.21v15.98Z"/>
        <path class="cls-2" d="M912.09,281.99v-97.03h35.96c31.1,0,43.09,20.83,43.09,48.23s-11.99,48.8-43.09,48.8h-35.96ZM948.04,266.01c17.41,0,23.68-13.13,23.68-32.82s-6.28-32.25-23.68-32.25h-17.12v65.07h17.12Z"/>
        <path class="cls-2" d="M1098.43,203.8c-12.84-3.57-22.12-4.71-29.82-4.71-11.56,0-16.13,4.85-16.13,11.13,0,18.55,52.22,8.85,52.22,43.66,0,20.26-15.84,29.54-36.53,29.54-10.99,0-23.12-1-36.53-4.71l2.71-15.55c14.13,3.57,25.26,4.71,32.96,4.71,11.56,0,17.98-5.57,17.98-12.56,0-18.69-52.22-10.13-52.22-45.09,0-19.26,15.98-26.68,35.1-26.68,10.99,0,21.26,1.43,34.24,5.14l-3.99,15.12Z"/>
        <path class="cls-2" d="M1190.03,276c-10.56,4.85-21.4,7.42-32.82,7.42-32.67,0-44.23-22.12-44.23-49.94s11.56-49.94,44.23-49.94c11.42,0,22.26,2.57,32.82,7.42l-3.57,14.7c-10.27-4.14-19.4-6.13-27.11-6.13-19.12,0-26.97,13.7-26.97,33.96s7.85,33.96,26.97,33.96c7.71,0,16.84-2,27.11-6.13l3.57,14.7Z"/>
        <path class="cls-2" d="M1201.15,281.99v-97.03h19.41v38.81h37.95v-38.81h19.41v97.03h-19.41v-42.24h-37.95v42.24h-19.41Z"/>
        <path class="cls-2" d="M1292.18,233.19c0-27.4,11.98-49.66,43.09-49.66s43.09,22.26,43.09,49.66-11.98,50.23-43.09,50.23-43.09-22.54-43.09-50.23ZM1358.95,233.19c0-19.69-6.28-33.67-23.69-33.67s-23.68,13.98-23.68,33.67,6.28,34.24,23.68,34.24,23.69-14.55,23.69-34.24Z"/>
        <path class="cls-2" d="M1387.49,233.19c0-27.4,11.98-49.66,43.09-49.66s43.09,22.26,43.09,49.66-11.98,50.23-43.09,50.23-43.09-22.54-43.09-50.23ZM1454.26,233.19c0-19.69-6.28-33.67-23.69-33.67s-23.68,13.98-23.68,33.67,6.28,34.24,23.68,34.24,23.69-14.55,23.69-34.24Z"/>
        <path class="cls-2" d="M1507.34,184.96v81.05h44.23v15.98h-63.64v-97.03h19.41Z"/>
      </g>
      <g>
        <path class="cls-2" d="M125.27,84.62c0,.93-.04,1.84-.12,2.75v-6.1c.08,1.1.12,2.22.12,3.34Z"/>
        <g>
          <path class="cls-2" d="M139.5,84.62c0,.93.04,1.84.12,2.75v-6.1c-.08,1.1-.12,2.22-.12,3.34ZM125.15,81.27v6.1c.08-.91.12-1.83.12-2.75,0-1.12-.04-2.24-.12-3.34Z"/>
          <path class="cls-2" d="M0,0v176.75c0,35.36,13.77,68.61,38.77,93.61,25,25,58.25,38.77,93.61,38.77s68.6-13.77,93.61-38.77c25-25,38.77-58.25,38.77-93.61V0H0ZM14.46,110.76h0c0-33.76,27.48-61.22,61.24-61.22,19.35,0,35.1,15.74,35.1,35.08,0,10.43-8.49,18.91-18.93,18.91-2.04,0-3.92-.69-5.42-1.84.52.09,1.07.14,1.62.14,6.08,0,11.03-4.95,11.03-11.03,0-7.4-6.02-13.41-13.41-13.41-9.49,0-17.22,7.72-17.22,17.21,0,6.45,2.62,12.3,6.86,16.53,4.24,4.24,10.09,6.86,16.54,6.86,17.48,0,31.87-13.5,33.27-30.62v-6.1c-1.72-25.76-23.24-46.2-49.44-46.2s-47.48,12.33-61.25,31.25V14.46h110.69v66.81c.08,1.1.12,2.22.12,3.34,0,.93-.04,1.84-.12,2.75v48.95H14.46v-25.56ZM250.3,176.75c0,31.5-12.26,61.11-34.54,83.38-11.14,11.14-24.11,19.77-38.23,25.62-14.12,5.85-29.4,8.92-45.15,8.92-31.5,0-61.11-12.26-83.38-34.54-22.27-22.27-34.54-51.88-34.54-83.38v-25.97h235.84v25.97ZM250.3,66.31c-13.78-18.92-36.1-31.24-61.24-31.24s-47.72,20.44-49.44,46.2v6.1c1.4,17.12,15.79,30.62,33.27,30.62,6.45,0,12.3-2.62,16.54-6.86,4.24-4.24,6.86-10.08,6.86-16.53,0-9.49-7.73-17.21-17.22-17.21-7.4,0-13.41,6.02-13.41,13.41,0,6.08,4.95,11.03,11.04,11.03.55,0,1.09-.05,1.62-.14-1.5,1.15-3.38,1.84-5.42,1.84-10.43,0-18.93-8.48-18.93-18.91,0-19.34,15.74-35.08,35.1-35.08,33.5,0,60.82,27.04,61.24,60.43v26.35h-110.69v-48.95c-.08-.91-.12-1.83-.12-2.75,0-1.12.04-2.24.12-3.34V14.46h110.69v51.85Z"/>
        </g>
        <g>
          <path class="cls-2" d="M132.39,168.72l-48.15,48.15,48.15,48.15,48.14-48.15-48.14-48.15ZM104.69,216.87l27.69-27.69,27.69,27.69-27.69,27.69-27.69-27.69Z"/>
          <rect class="cls-1" x="112.8" y="197.28" width="39.16" height="39.16" transform="translate(-114.58 157.15) rotate(-45)"/>
        </g>
        <path class="cls-2" d="M139.62,81.27v6.1c-.08-.91-.12-1.83-.12-2.75,0-1.12.04-2.24.12-3.34Z"/>
        <path class="cls-2" d="M264.77,110.76h0v-.49c0,.16,0,.33,0,.49Z"/>
      </g>
    </g>
  </g>
</svg>